<svg width="39" height="40" viewBox="0 0 39 40" fill="none" xmlns="http://www.w3.org/2000/svg">
<path d="M0.300308 0.0196533V34.7111H4.30989V39.7599H4.64888L10.354 24.8946L12.5549 25.7406L13.4168 23.4937C9.38111 21.2815 6.26699 17.7022 4.63439 13.3992C3.00179 9.09631 2.95782 4.3521 4.51039 0.0196533H0.300308ZM8.29414 0.0196533C8.15988 0.300102 8.03391 0.584446 7.91639 0.872314C7.17094 2.81336 6.81516 4.88225 6.86938 6.96082C6.92361 9.03938 7.38676 11.0869 8.2324 12.9865C9.07804 14.886 10.2896 16.6003 11.7979 18.0316C13.3061 19.4628 15.0816 20.5829 17.0228 21.3279C18.964 22.0733 21.0331 22.4289 23.1117 22.3745C25.1904 22.3201 27.238 21.8568 29.1376 21.0109C31.0372 20.165 32.7515 18.9532 34.1826 17.4446C35.6137 15.9361 36.7337 14.1604 37.4784 12.2189C38.2269 10.2621 38.5795 8.17619 38.5158 6.08209C38.4521 3.988 37.9734 1.92736 37.1074 0.0196533H30.8297C32.3853 1.92831 33.2357 4.31462 33.2378 6.77686C33.2379 8.18345 32.9608 9.57627 32.4226 10.8758C31.8843 12.1753 31.0953 13.3561 30.1007 14.3507C29.1061 15.3453 27.9253 16.1343 26.6258 16.6725C25.3263 17.2108 23.9335 17.4879 22.5269 17.4879C19.6862 17.4878 16.9619 16.3592 14.9534 14.3505C12.9448 12.3418 11.8164 9.6175 11.8164 6.77686C11.819 4.31443 12.67 1.9281 14.2261 0.0196533H8.29414ZM38.6882 17.401C36.4866 20.6367 33.3547 23.128 29.7068 24.5455C26.0588 25.9629 22.0666 26.2399 18.2579 25.3396L17.3892 27.6024L19.5901 28.4479L15.2462 39.7599H34.6786V34.7111H38.6882V17.401Z" fill="#DC3545"/>
</svg>
