<svg width="158" height="88" viewBox="0 0 158 88" fill="none" xmlns="http://www.w3.org/2000/svg">
<path d="M60.7243 0.229553V58.3989H80.9173C85.654 58.3989 89.892 56.7369 92.8836 53.7453C95.8752 50.7538 97.5372 46.5157 97.5372 41.7791C97.5372 37.0424 95.8752 32.8044 92.8836 29.8128C92.0526 29.0649 91.2216 28.317 90.3075 27.7353C92.6343 24.8269 93.9639 21.0043 93.9639 16.8494C93.9639 12.1127 92.3019 7.87467 89.3104 4.8831C86.3188 1.89153 82.0807 0.229553 77.3441 0.229553H60.7243ZM69.0342 8.53947H77.3441C79.8371 8.53947 81.9976 9.28735 83.4103 10.7831C84.9061 12.1958 85.654 14.3564 85.654 16.8494C85.654 19.3423 84.9061 21.5029 83.4103 22.9156C81.9976 24.4114 79.8371 25.1593 77.3441 25.1593H69.0342V8.53947ZM69.0342 33.4692H80.9173C83.4103 33.4692 85.5709 34.2171 86.9836 35.7129C88.4794 37.1255 89.2273 39.2861 89.2273 41.7791C89.2273 44.2721 88.4794 46.4326 86.9836 47.8453C85.5709 49.3411 83.4103 50.089 80.9173 50.089H69.0342V33.4692Z" fill="white"/>
<path d="M132.724 35.0481L104.221 0.146454V58.3989H112.531V23.4973L141.034 58.3989V0.229548H132.724V35.0481Z" fill="white"/>
<path d="M157.652 58.3989V0.229553H149.342V58.3989H157.652Z" fill="white"/>
<path d="M7.64786 72.8217C8.60217 73.1626 9.38607 73.7533 9.99956 74.594C10.613 75.412 10.9198 76.3549 10.9198 77.4229V82.1262C10.9198 82.8079 10.7834 83.4441 10.5108 84.0348C10.2608 84.6256 9.90865 85.1482 9.45422 85.6026C9.02251 86.0343 8.51127 86.3752 7.92051 86.6251C7.32975 86.875 6.69356 87 6.01192 87H1.5812H1.03589H0.456482V63.9603H1.03589H1.5812H4.8872C5.56884 63.9603 6.20503 64.0853 6.79579 64.3352C7.38655 64.5852 7.89779 64.9374 8.32949 65.3918C8.78393 65.8235 9.13612 66.3347 9.38605 66.9255C9.65872 67.5163 9.79507 68.1525 9.79507 68.8341C9.79507 69.6748 9.60193 70.4473 9.21566 71.1517C8.8294 71.8333 8.30679 72.39 7.64786 72.8217ZM1.5812 65.085V72.5491H5.02353C5.5234 72.5264 5.9892 72.4241 6.4209 72.2423C6.87534 72.0378 7.26159 71.7652 7.57969 71.4244C7.92051 71.0835 8.18182 70.6973 8.36359 70.2656C8.56809 69.8111 8.67035 69.334 8.67035 68.8341C8.67035 68.3115 8.56809 67.823 8.36359 67.3686C8.15911 66.9141 7.88645 66.5165 7.54563 66.1757C7.2048 65.8349 6.80714 65.5736 6.35271 65.3918C5.89829 65.1873 5.40981 65.085 4.8872 65.085H1.5812ZM9.79507 77.4229C9.79507 76.923 9.69281 76.4458 9.48831 75.9914C9.30654 75.537 9.04523 75.1393 8.70441 74.7985C8.38631 74.4577 8.00006 74.1964 7.54563 74.0146C7.09119 73.8101 6.60268 73.6965 6.08009 73.6738H5.02353H4.88726H1.58127V85.8753H6.01199C6.53458 85.8753 7.02309 85.7844 7.47753 85.6026C7.93196 85.3981 8.32958 85.1255 8.67041 84.7846C9.01122 84.4438 9.28388 84.0462 9.48838 83.5918C9.69288 83.1373 9.79513 82.6488 9.79513 82.1262L9.79507 77.4229Z" fill="white" stroke="white" stroke-width="0.435494" stroke-miterlimit="2"/>
<path d="M17.2234 77.2865H14.4287V87H13.3039V77.2865V76.1618V65.085V63.9603H14.4287H17.462C18.1436 63.9603 18.7798 64.0853 19.3706 64.3352C19.9841 64.5852 20.5067 64.9374 20.9384 65.3918C21.3928 65.8235 21.745 66.3347 21.995 66.9255C22.2676 67.5163 22.4039 68.1525 22.4039 68.8341V69.4476V72.4127C22.4039 73.0035 22.3017 73.5602 22.0972 74.0828C21.8927 74.6054 21.6087 75.0825 21.2451 75.5143C20.8816 75.946 20.4612 76.3095 19.9841 76.6049C19.5069 76.8775 18.9843 77.0707 18.4163 77.1843L22.5744 87H21.3474L17.2234 77.2865ZM14.4287 76.1618H17.462C17.9846 76.1618 18.4731 76.0709 18.9275 75.8892C19.382 75.6847 19.7796 75.412 20.1204 75.0712C20.4612 74.7303 20.7339 74.3327 20.9384 73.8783C21.1429 73.4239 21.2451 72.9353 21.2451 72.4127V69.4476V68.8341C21.2451 68.3342 21.1429 67.8571 20.9384 67.4027C20.7339 66.9482 20.4612 66.5506 20.1204 66.2098C19.7796 65.8689 19.382 65.5963 18.9275 65.3918C18.4731 65.1873 17.9846 65.085 17.462 65.085H14.4287V76.1618Z" fill="white" stroke="white" stroke-width="0.435494" stroke-miterlimit="2"/>
<path d="M35.246 87L33.6442 79.7745H27.0322L25.4303 87H24.2715L29.3839 63.9603H31.2925L36.4049 87H35.246ZM27.2708 78.6498H33.4056L30.3382 64.8806L27.2708 78.6498Z" fill="white" stroke="white" stroke-width="0.435494" stroke-miterlimit="2"/>
<path d="M46.1508 63.9603H47.2755V87H46.1508L38.9253 67.0959V87H37.8006V63.9603H38.9253L46.1508 83.8644V63.9603V63.9603Z" fill="white" stroke="white" stroke-width="0.435494" stroke-miterlimit="2"/>
<path d="M54.3529 63.9603C55.0346 63.9603 55.6708 64.0853 56.2616 64.3352C56.875 64.5852 57.3977 64.9374 57.8294 65.3918C58.2838 65.8235 58.636 66.3347 58.8859 66.9255C59.1585 67.5163 59.2949 68.1525 59.2949 68.8341V82.1262C59.2949 82.8079 59.1585 83.4441 58.8859 84.0348C58.636 84.6256 58.2838 85.1482 57.8294 85.6026C57.3977 86.0343 56.875 86.3752 56.2616 86.6251C55.6708 86.875 55.0346 87 54.3529 87H50.7743H50.5017H49.6496V63.9603H50.5017H50.7743H54.3529ZM58.1361 68.8341C58.1361 68.3115 58.0339 67.823 57.8294 67.3686C57.6249 66.9141 57.3522 66.5165 57.0114 66.1757C56.6705 65.8349 56.2729 65.5736 55.8185 65.3918C55.364 65.1873 54.8755 65.085 54.3529 65.085H50.7743V85.8753H54.3529C54.8755 85.8753 55.364 85.7844 55.8185 85.6026C56.2729 85.3981 56.6705 85.1255 57.0114 84.7846C57.3522 84.4438 57.6249 84.0462 57.8294 83.5918C58.0339 83.1373 58.1361 82.6488 58.1361 82.1262V68.8341Z" fill="white" stroke="white" stroke-width="0.435494" stroke-miterlimit="2"/>
<path d="M75.3072 63.9603H76.4319V87H75.3072L68.0817 67.0959V87H66.957V63.9603H68.0817L75.3072 83.8644V63.9603V63.9603Z" fill="white" stroke="white" stroke-width="0.435494" stroke-miterlimit="2"/>
<path d="M88.1025 65.1191H80.2635V73.8101H86.7051V74.9348H80.2635V85.8753H88.1025V87H80.2635H79.1388V63.9603H80.2635H88.1025V65.1191V65.1191Z" fill="white" stroke="white" stroke-width="0.435494" stroke-miterlimit="2"/>
<path d="M108.16 63.9603H109.319L104.343 87H102.639L99.5371 66.4483L96.4697 87H94.7656L89.7896 63.9603H90.9483L95.5835 85.33L98.7873 63.9603H100.321L103.525 85.33L108.16 63.9603V63.9603Z" fill="white" stroke="white" stroke-width="0.435494" stroke-miterlimit="2"/>
<path d="M117.408 87H116.283V63.9603H117.408V87Z" fill="white" stroke="white" stroke-width="0.435494" stroke-miterlimit="2"/>
<path d="M128.694 63.9603H129.819V87H128.694L121.469 67.0959V87H120.344V63.9603H121.469L128.694 83.8644V63.9603V63.9603Z" fill="white" stroke="white" stroke-width="0.435494" stroke-miterlimit="2"/>
<path d="M136.896 63.9603C137.578 63.9603 138.214 64.0853 138.805 64.3352C139.418 64.5852 139.941 64.9374 140.373 65.3918C140.827 65.8235 141.179 66.3347 141.429 66.9255C141.702 67.5163 141.838 68.1525 141.838 68.8341V82.1262C141.838 82.8079 141.702 83.4441 141.429 84.0348C141.179 84.6256 140.827 85.1482 140.373 85.6026C139.941 86.0343 139.418 86.3752 138.805 86.6251C138.214 86.875 137.578 87 136.896 87H133.318H133.045H132.193V63.9603H133.045H133.318H136.896ZM140.679 68.8341C140.679 68.3115 140.577 67.823 140.373 67.3686C140.168 66.9141 139.895 66.5165 139.555 66.1757C139.214 65.8349 138.816 65.5736 138.362 65.3918C137.907 65.1873 137.419 65.085 136.896 65.085H133.318V85.8753H136.896C137.419 85.8753 137.907 85.7844 138.362 85.6026C138.816 85.3981 139.214 85.1255 139.555 84.7846C139.895 84.4438 140.168 84.0462 140.373 83.5918C140.577 83.1373 140.679 82.6488 140.679 82.1262V68.8341Z" fill="white" stroke="white" stroke-width="0.435494" stroke-miterlimit="2"/>
<path d="M145.366 87H144.241V63.9603H145.366V87Z" fill="white" stroke="white" stroke-width="0.435494" stroke-miterlimit="2"/>
<path d="M157.266 65.1191H149.427V73.8101H155.868V74.9348H149.427V85.8753H157.266V87H149.427H148.302V63.9603H149.427H157.266V65.1191V65.1191Z" fill="white" stroke="white" stroke-width="0.435494" stroke-miterlimit="2"/>
<path d="M0 0V50.9054H5.88356V58.3139H6.38025L14.7525 36.501L17.9821 37.7423L19.2461 34.4453C13.3244 31.1991 8.75489 25.9468 6.3594 19.6328C3.9639 13.3187 3.8995 6.35725 6.17778 0H0ZM11.73 0C11.5327 0.411517 11.3476 0.828759 11.1749 1.25118C10.081 4.09948 9.55904 7.13536 9.63865 10.1854C9.71827 13.2355 10.398 16.24 11.6389 19.0274C12.8799 21.8147 14.6577 24.3303 16.871 26.4304C19.0843 28.5306 21.6896 30.1742 24.5382 31.2673C27.3867 32.361 30.4227 32.8829 33.473 32.8031C36.5232 32.7233 39.5278 32.0433 42.3152 30.8021C45.1026 29.5608 47.6181 27.7826 49.7181 25.569C51.8181 23.3554 53.4615 20.7498 54.5543 17.9009C55.6526 15.0295 56.17 11.9687 56.0765 8.89588C55.9831 5.82305 55.2806 2.79933 54.0098 0H44.7982C47.0807 2.80072 48.3286 6.30235 48.3318 9.91539C48.3318 11.9794 47.9253 14.0232 47.1355 15.9301C46.3456 17.837 45.1879 19.5696 43.7285 21.0291C42.269 22.4885 40.5363 23.6463 38.6294 24.4361C36.7225 25.2259 34.6788 25.6325 32.6148 25.6324C30.5508 25.6325 28.507 25.2259 26.6001 24.4361C24.6932 23.6463 22.9605 22.4885 21.5011 21.0291C20.0416 19.5696 18.8839 17.837 18.0941 15.9301C17.3042 14.0232 16.8977 11.9794 16.8977 9.91539C16.9017 6.30198 18.1507 2.80031 20.4344 0H11.73ZM56.3295 25.505C53.0989 30.253 48.5033 33.9087 43.1504 35.9887C37.7975 38.0686 31.9394 38.4749 26.3506 37.1539L25.0758 40.4744L28.3046 41.715L21.9312 58.3139H50.4459V50.9054H56.3295V25.505Z" fill="#DC3545"/>
</svg>
