<?xml version="1.0" encoding="UTF-8" standalone="no"?>
<svg
   xmlns:dc="http://purl.org/dc/elements/1.1/"
   xmlns:cc="http://creativecommons.org/ns#"
   xmlns:rdf="http://www.w3.org/1999/02/22-rdf-syntax-ns#"
   xmlns:svg="http://www.w3.org/2000/svg"
   xmlns="http://www.w3.org/2000/svg"
   xmlns:sodipodi="http://sodipodi.sourceforge.net/DTD/sodipodi-0.dtd"
   xmlns:inkscape="http://www.inkscape.org/namespaces/inkscape"
   fill="#000000"
   viewBox="0 0 24 24"
   width="24px"
   height="24px"
   version="1.1"
   id="svg4"
   sodipodi:docname="twitter.svg"
   inkscape:version="0.92.4 (5da689c313, 2019-01-14)">
  <metadata
     id="metadata10">
    <rdf:RDF>
      <cc:Work
         rdf:about="">
        <dc:format>image/svg+xml</dc:format>
        <dc:type
           rdf:resource="http://purl.org/dc/dcmitype/StillImage" />
      </cc:Work>
    </rdf:RDF>
  </metadata>
  <defs
     id="defs8" />
  <sodipodi:namedview
     pagecolor="#ffffff"
     bordercolor="#666666"
     borderopacity="1"
     objecttolerance="10"
     gridtolerance="10"
     guidetolerance="10"
     inkscape:pageopacity="0"
     inkscape:pageshadow="2"
     inkscape:window-width="1920"
     inkscape:window-height="1046"
     id="namedview6"
     showgrid="false"
     inkscape:zoom="32.380859"
     inkscape:cx="12"
     inkscape:cy="12"
     inkscape:window-x="-11"
     inkscape:window-y="-11"
     inkscape:window-maximized="1"
     inkscape:current-layer="svg4" />
  <path
     d="M19,3H5C3.895,3,3,3.895,3,5v14c0,1.105,0.895,2,2,2h14c1.105,0,2-0.895,2-2V5C21,3.895,20.105,3,19,3z M17.05,9.514 c0,0.086,0,0.171,0,0.343c0,3.257-2.486,7.029-7.029,7.029c-1.371,0-2.657-0.429-3.771-1.114c0.171,0,0.429,0,0.6,0 c1.114,0,2.229-0.429,3.086-1.029c-1.114,0-1.971-0.771-2.314-1.714c0.171,0,0.343,0.086,0.429,0.086c0.257,0,0.429,0,0.686-0.086 c-1.114-0.257-1.971-1.2-1.971-2.4c0.343,0.171,0.686,0.257,1.114,0.343c-0.686-0.6-1.114-1.286-1.114-2.143 c0-0.429,0.086-0.857,0.343-1.2c1.2,1.457,3,2.486,5.057,2.571c0-0.171-0.086-0.343-0.086-0.6c0-1.371,1.114-2.486,2.486-2.486 c0.686,0,1.371,0.257,1.8,0.771c0.6-0.086,1.114-0.343,1.543-0.6c-0.171,0.6-0.6,1.029-1.114,1.371 c0.514-0.086,0.943-0.171,1.457-0.429C17.907,8.743,17.479,9.171,17.05,9.514z"
     id="path2"
     style="fill:#f8f9fa;fill-opacity:1" />
</svg>
